<svg width="126" height="62" viewBox="0 0 126 62" fill="none" xmlns="http://www.w3.org/2000/svg">
<g style="mix-blend-mode:luminosity">
<rect x="32" y="44" width="68" height="7" rx="3.5" fill="#FDFDFD"/>
<rect x="33" width="56" height="38" rx="4" fill="#FDFDFD"/>
<path d="M94 38C94 30.8203 99.8203 25 107 25H113C120.18 25 126 30.8203 126 38V45.6667C126 48.6122 123.612 51 120.667 51H99.8667H94V38Z" fill="#FDFDFD"/>
<path d="M97 43H123C124.657 43 126 41.6569 126 40V30.3613C126 29.4962 125.627 28.6732 124.976 28.1036L111.979 16.732C110.703 15.6154 109.065 15 107.37 15H98C95.7909 15 94 16.7909 94 19V40C94 41.6569 95.3431 43 97 43Z" fill="#FDFDFD"/>
<path d="M107.216 19H99C98.4477 19 98 19.4477 98 20V29C98 29.5523 98.4477 30 99 30H116.663C117.543 30 117.994 28.9459 117.386 28.3095L109.386 19.9286C108.82 19.3355 108.036 19 107.216 19Z" fill="#FF94A7"/>
<path d="M111.5 43C106.253 43 102 47.2533 102 52.5H121C121 47.2533 116.747 43 111.5 43Z" fill="#FF94A7"/>
<path d="M53.5 43C48.2533 43 44 47.2533 44 52.5H63C63 47.2533 58.7467 43 53.5 43Z" fill="#FF94A7"/>
<circle cx="111.5" cy="54.5" r="5.5" stroke="#FDFDFD" stroke-width="4"/>
<circle cx="53.5" cy="54.5" r="5.5" stroke="#FDFDFD" stroke-width="4"/>
<rect y="6" x="25" width="20" height="5" rx="2.5" fill="#FF92A6"/>
<rect x="16" y="17" width="45" height="5" rx="2.5" fill="#FF92A6"/>
<path d="M14 25C14 23.3431 15.4028 22 17.1333 22H57.8667C59.5972 22 61 23.3431 61 25C61 26.6569 59.5972 28 57.8667 28H17.1333C15.4028 28 14 26.6569 14 25Z" fill="#FDFDFD"/>
<path d="M3 14C3 12.3431 4.73117 11 6.86667 11H57.1333C59.2688 11 61 12.3431 61 14C61 15.6569 59.2688 17 57.1333 17H6.86667C4.73117 17 3 15.6569 3 14Z" fill="#FDFDFD"/>
<path d="M25 3C25 1.34315 26.0745 0 27.4 0H58.6C59.9255 0 61 1.34315 61 3C61 4.65685 59.9255 6 58.6 6H27.4C26.0745 6 25 4.65685 25 3Z" fill="#FDFDFD"/>
<rect y="28" width="45" height="5" rx="2.5" fill="#FF92A6"/>
<path d="M31 35C31 33.3431 31.9253 32 33.0667 32H59.9333C61.0747 32 62 33.3431 62 35C62 36.6569 61.0747 38 59.9333 38H33.0667C31.9253 38 31 36.6569 31 35Z" fill="#FDFDFD"/>
</g>
</svg>
